<?xml version="1.0" encoding="utf-8"?>
<!-- Generator: Adobe Illustrator 28.0.0, SVG Export Plug-In . SVG Version: 6.00 Build 0)  -->
<svg version="1.0" id="katman_1" xmlns="http://www.w3.org/2000/svg" xmlns:xlink="http://www.w3.org/1999/xlink" x="0px" y="0px"
	 viewBox="0 0 445.02 356.01" style="enable-background:new 0 0 445.02 356.01;" xml:space="preserve">
<style type="text/css">
	.st0{clip-path:url(#SVGID_00000043424982248131852160000003781232048484737453_);}
	.st1{fill:#000942;}
	.st2{fill:#4733FF;}
</style>
<sodipodi:namedview  bordercolor="#000000" borderopacity="0.25" id="namedview10" pagecolor="#ffffff" showgrid="false">
	</sodipodi:namedview>
<g>
	<defs>
		<rect id="SVGID_1_" width="445.02" height="356.01"/>
	</defs>
	<clipPath id="SVGID_00000099629439897603104680000007697013512979114883_">
		<use xlink:href="#SVGID_1_"  style="overflow:visible;"/>
	</clipPath>
	<g style="clip-path:url(#SVGID_00000099629439897603104680000007697013512979114883_);">
		<path class="st1" d="M222.51,22.25c-5.63,0-11.2,0.97-16.48,2.85L10.99,95.54C4.38,97.97,0,104.23,0,111.25
			c0,7.02,4.38,13.28,10.99,15.71l53.82,19.4c11.68-12.38,26.28-22.18,42.9-28.44l110.84-41.58c5.77-2.16,12.17,0.76,14.32,6.54
			c2.16,5.77-0.76,12.17-6.54,14.32l-110.77,41.58c-10.15,3.82-19.33,9.32-27.33,16.06l117.86,42.56
			c5.28,1.88,10.85,2.85,16.48,2.85c5.63,0,11.19-0.97,16.48-2.85l194.97-70.44c6.61-2.36,10.99-8.69,10.99-15.71
			c0-7.02-4.38-13.28-10.99-15.71L238.99,25.1C233.7,23.22,228.14,22.25,222.51,22.25z M89,283.7c0,24.55,59.8,50.07,133.51,50.07
			s133.51-25.52,133.51-50.07l-10.64-101.1l-98.88,35.74c-7.72,2.78-15.85,4.17-23.99,4.17c-8.13,0-16.34-1.39-23.99-4.17
			L99.64,182.6L89,283.7z"/>
		<path class="st2" d="M226.4,97.21c5.77-2.16,8.69-8.55,6.54-14.32c-2.16-5.77-8.55-8.69-14.32-6.54l-110.91,41.58
			c-43.46,16.34-72.66,57.16-74.26,103.33c-0.07,0.42-0.07,0.84-0.07,1.25c0,19.75-7.51,40.19-15.51,56.18
			c-4.52,9.04-9.67,17.94-15.65,26.14c-2.23,2.99-2.85,6.88-1.6,10.43c1.25,3.55,4.17,6.19,7.79,7.09l44.5,11.13
			c2.92,0.76,6.05,0.21,8.62-1.39c2.57-1.6,4.38-4.24,4.94-7.23c5.98-29.76,2.99-56.46-1.46-75.58c-2.23-9.73-5.22-19.68-9.32-28.86
			c1.95-36.5,25.31-68.63,59.8-81.56l110.84-41.58L226.4,97.21z"/>
	</g>
</g>
</svg>
